<svg width="276" height="276" viewBox="0 0 276 276" fill="none" xmlns="http://www.w3.org/2000/svg">
<g filter="url(#filter0_d_418_4379)">
<g clip-path="url(#clip0_418_4379)">
<rect x="10" y="10" width="256" height="256" rx="5" fill="#F32688"/>
<path d="M92.4 198.2C100.4 203.8 114 207.8 134.2 207.8C172.8 207.8 192.4 192.6 192.4 164.4C192.4 140.6 173 130.2 147.6 124.8C134.2 121.8 124 121 124 113.6C124 107 129.6 103.6 141.2 103.6C153.4 103.6 166.6 109.6 175.2 117.6C176 118.2 189.4 108.6 189.4 97.4C189.4 91.2 186.2 85.6 179 81.2C171 76.2 158.6 72.8 140.8 72.8C105.4 72.8 85.8 88.6 85.8 115.2C85.8 142 107.4 150.4 129 155C141.8 157.6 151.8 159 151.8 167C151.8 173.6 146.2 177 134 177C120.4 177 104.2 169.8 96 162.2C94.6 161.2 82.8 171.6 82.8 181.2C82.8 187.6 85.6 193.6 92.4 198.2Z" fill="#39C58A"/>
<path d="M92.4 194.2C100.4 199.8 114 203.8 134.2 203.8C172.8 203.8 192.4 188.6 192.4 160.4C192.4 136.6 173 126.2 147.6 120.8C134.2 117.8 124 117 124 109.6C124 103 129.6 99.6 141.2 99.6C153.4 99.6 166.6 105.6 175.2 113.6C176 114.2 189.4 104.6 189.4 93.4C189.4 87.2 186.2 81.6 179 77.2C171 72.2 158.6 68.8 140.8 68.8C105.4 68.8 85.8 84.6 85.8 111.2C85.8 138 107.4 146.4 129 151C141.8 153.6 151.8 155 151.8 163C151.8 169.6 146.2 173 134 173C120.4 173 104.2 165.8 96 158.2C94.6 157.2 82.8 167.6 82.8 177.2C82.8 183.6 85.6 189.6 92.4 194.2Z" fill="#F32688"/>
<path d="M92.4 187.2C100.4 192.8 114 196.8 134.2 196.8C172.8 196.8 192.4 181.6 192.4 153.4C192.4 129.6 173 119.2 147.6 113.8C134.2 110.8 124 110 124 102.6C124 96 129.6 92.6 141.2 92.6C153.4 92.6 166.6 98.6 175.2 106.6C176 107.2 189.4 97.6 189.4 86.4C189.4 80.2 186.2 74.6 179 70.2C171 65.2 158.6 61.8 140.8 61.8C105.4 61.8 85.8 77.6 85.8 104.2C85.8 131 107.4 139.4 129 144C141.8 146.6 151.8 148 151.8 156C151.8 162.6 146.2 166 134 166C120.4 166 104.2 158.8 96 151.2C94.6 150.2 82.8 160.6 82.8 170.2C82.8 176.6 85.6 182.6 92.4 187.2Z" fill="white"/>
</g>
</g>
<defs>
<filter id="filter0_d_418_4379" x="0" y="0" width="276" height="276" filterUnits="userSpaceOnUse" color-interpolation-filters="sRGB">
<feFlood flood-opacity="0" result="BackgroundImageFix"/>
<feColorMatrix in="SourceAlpha" type="matrix" values="0 0 0 0 0 0 0 0 0 0 0 0 0 0 0 0 0 0 127 0" result="hardAlpha"/>
<feOffset/>
<feGaussianBlur stdDeviation="5"/>
<feComposite in2="hardAlpha" operator="out"/>
<feColorMatrix type="matrix" values="0 0 0 0 0 0 0 0 0 0 0 0 0 0 0 0 0 0 0.25 0"/>
<feBlend mode="darken" in2="BackgroundImageFix" result="effect1_dropShadow_418_4379"/>
<feBlend mode="normal" in="SourceGraphic" in2="effect1_dropShadow_418_4379" result="shape"/>
</filter>
<clipPath id="clip0_418_4379">
<rect x="10" y="10" width="256" height="256" rx="5" fill="white"/>
</clipPath>
</defs>
</svg>
