{
    "asset" : {
        "generator" : "Khronos glTF Blender I/O v3.4.50",
        "version" : "2.0"
    },
    "scene" : 0,
    "scenes" : [
        {
            "name" : "Scene",
            "nodes" : [
                0,
                1
            ]
        }
    ],
    "nodes" : [
        {
            "mesh" : 0,
            "name" : "Curve",
            "translation" : [
                -4.0365309715271,
                0.016925126314163208,
                0.8285520672798157
            ]
        },
        {
            "mesh" : 1,
            "name" : "Curve.001",
            "scale" : [
                182.42584228515625,
                182.42584228515625,
                182.42584228515625
            ],
            "translation" : [
                -4.0365309715271,
                0.016925126314163208,
                0.8285520672798157
            ]
        }
    ],
    "materials" : [
        {
            "doubleSided" : true,
            "name" : "SVGMat",
            "pbrMetallicRoughness" : {
                "baseColorFactor" : [
                    0.8962693810462952,
                    0.019382361322641373,
                    0.2462013214826584,
                    1
                ],
                "metallicFactor" : 0,
                "roughnessFactor" : 0.4000000059604645
            }
        },
        {
            "doubleSided" : true,
            "name" : "SVGMat.001",
            "pbrMetallicRoughness" : {
                "baseColorFactor" : [
                    0.040915198624134064,
                    0.5583403706550598,
                    0.2541520893573761,
                    1
                ],
                "metallicFactor" : 0,
                "roughnessFactor" : 0.4000000059604645
            }
        }
    ],
    "meshes" : [
        {
            "name" : "Curve",
            "primitives" : [
                {
                    "attributes" : {
                        "POSITION" : 0,
                        "TEXCOORD_0" : 1,
                        "NORMAL" : 2
                    },
                    "indices" : 3,
                    "material" : 0
                }
            ]
        },
        {
            "name" : "Curve.001",
            "primitives" : [
                {
                    "attributes" : {
                        "POSITION" : 4,
                        "TEXCOORD_0" : 5,
                        "NORMAL" : 6
                    },
                    "indices" : 7,
                    "material" : 1
                }
            ]
        }
    ],
    "accessors" : [
        {
            "bufferView" : 0,
            "componentType" : 5126,
            "count" : 23292,
            "max" : [
                6.159574031829834,
                0.20066842436790466,
                -0.47341737151145935
            ],
            "min" : [
                0.008090939372777939,
                -0.20066842436790466,
                -1.692628026008606
            ],
            "type" : "VEC3"
        },
        {
            "bufferView" : 1,
            "componentType" : 5126,
            "count" : 23292,
            "type" : "VEC2"
        },
        {
            "bufferView" : 2,
            "componentType" : 5126,
            "count" : 23292,
            "type" : "VEC3"
        },
        {
            "bufferView" : 3,
            "componentType" : 5123,
            "count" : 101748,
            "type" : "SCALAR"
        },
        {
            "bufferView" : 4,
            "componentType" : 5126,
            "count" : 13158,
            "max" : [
                0.0523773729801178,
                0.0010999999940395355,
                -0.001024023280479014
            ],
            "min" : [
                0.03384990245103836,
                -0.0010999999940395355,
                -0.00866437517106533
            ],
            "type" : "VEC3"
        },
        {
            "bufferView" : 5,
            "componentType" : 5126,
            "count" : 13158,
            "type" : "VEC2"
        },
        {
            "bufferView" : 6,
            "componentType" : 5126,
            "count" : 13158,
            "type" : "VEC3"
        },
        {
            "bufferView" : 7,
            "componentType" : 5123,
            "count" : 57348,
            "type" : "SCALAR"
        }
    ],
    "bufferViews" : [
        {
            "buffer" : 0,
            "byteLength" : 279504,
            "byteOffset" : 0,
            "target" : 34962
        },
        {
            "buffer" : 0,
            "byteLength" : 186336,
            "byteOffset" : 279504,
            "target" : 34962
        },
        {
            "buffer" : 0,
            "byteLength" : 279504,
            "byteOffset" : 465840,
            "target" : 34962
        },
        {
            "buffer" : 0,
            "byteLength" : 203496,
            "byteOffset" : 745344,
            "target" : 34963
        },
        {
            "buffer" : 0,
            "byteLength" : 157896,
            "byteOffset" : 948840,
            "target" : 34962
        },
        {
            "buffer" : 0,
            "byteLength" : 105264,
            "byteOffset" : 1106736,
            "target" : 34962
        },
        {
            "buffer" : 0,
            "byteLength" : 157896,
            "byteOffset" : 1212000,
            "target" : 34962
        },
        {
            "buffer" : 0,
            "byteLength" : 114696,
            "byteOffset" : 1369896,
            "target" : 34963
        }
    ],
    "buffers" : [
        {
            "byteLength" : 1484592,
            "uri" : "data:application/octet-stream;base64,"
        }
    ]
}
